<svg width="32" height="32" viewBox="0 0 32 32" fill="none" xmlns="http://www.w3.org/2000/svg">
<rect width="32" height="32" fill="#5DA20A"/>
<path fill-rule="evenodd" clip-rule="evenodd" d="M10 14.0025C10.5523 14.0025 11 14.4502 11 15.0025V21.0025C11 21.5548 10.5523 22.0025 10 22.0025C9.44772 22.0025 9 21.5548 9 21.0025V15.0025C9 14.4502 9.44772 14.0025 10 14.0025ZM16 14.0025C16.5523 14.0025 17 14.4502 17 15.0025V21.0025C17 21.5548 16.5523 22.0025 16 22.0025C15.4477 22.0025 15 21.5548 15 21.0025V15.0025C15 14.4502 15.4477 14.0025 16 14.0025ZM22 14.0025C22.5523 14.0025 23 14.4502 23 15.0025V21.0025C23 21.5548 22.5523 22.0025 22 22.0025C21.4477 22.0025 21 21.5548 21 21.0025V15.0025C21 14.4502 21.4477 14.0025 22 14.0025ZM7.5 24.0025H24.5C25.0523 24.0025 25.5 24.4502 25.5 25.0025C25.5 25.5548 25.0523 26.0025 24.5 26.0025H7.5C6.94772 26.0025 6.5 25.5548 6.5 25.0025C6.5 24.4502 6.94772 24.0025 7.5 24.0025ZM15.07 5.4925L7.17 9.6525C6.76 9.8625 6.5 10.2925 6.5 10.7525C6.5 11.4425 7.06 12.0025 7.75 12.0025H24.26C24.94 12.0025 25.5 11.4425 25.5 10.7525C25.5 10.2925 25.24 9.8625 24.83 9.6525L16.93 5.4925C16.35 5.1825 15.65 5.1825 15.07 5.4925Z" fill="white"/>
</svg>
