<svg width="32" height="32" viewBox="0 0 32 32" fill="none" xmlns="http://www.w3.org/2000/svg">
<rect width="32" height="32" fill="#757575"/>
<path d="M14.8542 16.9322C13.8524 16.9322 13.1592 17.5999 13.1592 18.6272V21.7161H13.9244V19.745H13.9372C14.1431 20.0639 14.5219 20.2711 14.997 20.2711C15.7546 20.2711 16.5638 19.7253 16.5638 18.6017C16.5625 17.6381 15.856 16.9322 14.8542 16.9322ZM14.8542 19.5582C14.2956 19.5582 13.9231 19.1603 13.9231 18.6017C13.9231 18.0431 14.2956 17.6452 14.8542 17.6452C15.4128 17.6452 15.7916 18.0431 15.7916 18.6017C15.7916 19.1603 15.4128 19.5582 14.8542 19.5582ZM17.1728 15.4554H17.9367V20.1882H17.1728V15.4554ZM21.0448 18.6661C21.0448 19.2693 20.7259 19.5588 20.2419 19.5588C19.7579 19.5588 19.4397 19.27 19.4397 18.6661V17.0145H18.6745V18.6661C18.6745 19.7317 19.3039 20.2711 20.2413 20.2711C21.1787 20.2711 21.8087 19.7253 21.8087 18.6661V17.0145H21.0435L21.0448 18.6661ZM23.1536 17.9659C23.1536 17.7542 23.3207 17.5999 23.6637 17.5999C23.959 17.5999 24.1388 17.7351 24.1579 17.9277H24.9161C24.8964 17.369 24.4213 16.9322 23.651 16.9322C22.8807 16.9322 22.3858 17.369 22.3858 17.9659C22.3858 19.3019 24.216 18.6725 24.216 19.2311C24.216 19.4492 24.0489 19.6035 23.642 19.6035C23.2824 19.6035 23.0962 19.4626 23.0898 19.2502H22.3163C22.3361 19.8413 22.843 20.2705 23.6522 20.2705C24.4615 20.2705 24.9812 19.8343 24.9812 19.2304C24.9812 17.9277 23.1536 18.5245 23.1536 17.9659ZM7.89004 11.6975C7.41497 11.6975 7.03555 11.9028 6.83022 12.2236H6.81746V10.2206H6.05225V13.3415C6.05225 14.3688 6.74541 15.0364 7.7472 15.0364C8.749 15.0364 9.45555 14.3299 9.45555 13.367C9.45683 12.2434 8.64761 11.6975 7.89004 11.6975ZM7.74848 14.3235C7.18987 14.3235 6.81746 13.9256 6.81746 13.367C6.81746 12.8083 7.18987 12.4104 7.74848 12.4104C8.30709 12.4104 8.68587 12.809 8.68587 13.367C8.68587 13.9249 8.30709 14.3235 7.74848 14.3235ZM11.5376 11.6975C10.5358 11.6975 9.82923 12.4034 9.82923 13.367C9.82923 14.3305 10.5358 15.0377 11.5376 15.0377C12.2888 15.0377 12.8665 14.6461 13.1044 14.0423H12.2888C12.1281 14.2482 11.8775 14.3445 11.5376 14.3445C11.0625 14.3445 10.7347 14.0748 10.6321 13.6507V13.6348H13.2325V13.367C13.2325 12.4034 12.5394 11.6975 11.5376 11.6975ZM12.4233 13.0264H10.6512V13.0137C10.773 12.6311 11.088 12.3907 11.5376 12.3907C11.9871 12.3907 12.3028 12.6285 12.4233 13.0137V13.0264ZM15.3005 11.6975C14.3631 11.6975 13.7338 12.2434 13.7338 13.3026V14.9529H14.499V13.3026C14.499 12.6993 14.8178 12.4098 15.3018 12.4098C15.7858 12.4098 16.1047 12.6993 16.1047 13.3026V14.9529H16.8699V13.3026C16.8673 12.237 16.2379 11.6975 15.3005 11.6975ZM19.0769 11.6975C18.0751 11.6975 17.3685 12.4034 17.3685 13.367C17.3685 14.3305 18.0751 15.0377 19.0769 15.0377C19.8281 15.0377 20.4058 14.6461 20.6437 14.0423H19.8281C19.6674 14.2482 19.4168 14.3445 19.0769 14.3445C18.6012 14.3445 18.274 14.0748 18.1714 13.6507V13.6348H20.7718V13.367C20.7718 12.4034 20.0787 11.6975 19.0769 11.6975ZM19.9652 13.0264H18.1905V13.0137C18.3123 12.6311 18.6273 12.3907 19.0769 12.3907C19.5264 12.3907 19.8421 12.6285 19.9626 13.0137L19.9652 13.0264ZM27.1378 13.733C27.1378 14.1634 26.9197 14.3235 26.6047 14.3235C26.2897 14.3235 26.0722 14.157 26.0722 13.733V12.4742H27.7098V11.781H26.0722V10.8079H25.307V13.733C25.307 14.613 25.8338 15.0364 26.6041 15.0364C27.3744 15.0364 27.9018 14.613 27.9018 13.733V13.6495H27.1365L27.1378 13.733ZM24.4168 11.7817H22.3048V11.517C22.3048 11.0031 22.5746 10.7754 22.9725 10.7754C23.2626 10.7754 23.4826 10.8953 23.5827 11.158H24.3747C24.2472 10.4253 23.7141 10.0612 22.9718 10.0612C22.118 10.0612 21.5402 10.5459 21.5402 11.5158V11.7804H21.0186V12.4761H21.5402V14.9516H22.3055V12.4774H23.6529V14.9529H24.4181L24.4168 11.7817Z" fill="white"/>
</svg>
