<svg width="32" height="32" viewBox="0 0 32 32" fill="none" xmlns="http://www.w3.org/2000/svg">
<rect width="32" height="32" fill="#5DA20A"/>
<path fill-rule="evenodd" clip-rule="evenodd" d="M7 15L7.14869 15.0055C8.17996 15.0822 9 15.95 9 17V24C9 25.1 8.1 26 7 26L6.85131 25.9945C5.82004 25.9178 5 25.05 5 24V17C5 15.9 5.9 15 7 15ZM12.6 15C12.84 15 13.08 15.04 13.3 15.13L20.22 17.71C20.68 17.89 20.99 18.33 20.99 18.82L20.9839 18.9404C20.9233 19.5342 20.4194 20 19.81 20H17.18C17.06 20 16.93 19.97 16.82 19.93L15.7 19.5C15.44 19.4 15.15 19.54 15.06 19.8L15.038 19.8871C15.0005 20.1199 15.1289 20.35 15.36 20.43L16.83 20.94C16.94 20.98 17.05 21 17.16 21H23.99C25.1 21 26 21.89 26 23L18.62 25.78C18.22 25.93 17.78 25.95 17.37 25.83L11 24.02V15H12.6ZM26 11V19L23.9998 19L22.971 18.991L22.99 18.82C22.99 18.1606 22.7848 17.5335 22.4222 17.0108C22.1095 16.56 21.6793 16.1876 21.1668 15.9422C21.3755 15.6857 21.5 15.3577 21.5 15C21.5 14.17 20.83 13.5 20 13.5C19.2188 13.5 18.5794 14.0935 18.5069 14.8553L18.503 14.935L16 14.002V12C16 11.4893 16.388 11.0648 16.8838 11.0068L17 11H26ZM23 6C24.1 6 25 6.9 25 8V9H16C14.89 9 14 9.9 14 11L14.0004 13.2562C13.5582 13.0842 13.0801 13 12.6 13H7V8C7 6.9 7.89 6 9 6H23Z" fill="white"/>
</svg>
