<svg width="32" height="32" viewBox="0 0 32 32" fill="none" xmlns="http://www.w3.org/2000/svg">
<rect width="32" height="32" fill="#E43F2C"/>
<path d="M14.1723 26.8929C12.532 26.7432 10.834 26.1626 9.3216 25.2342C8.11154 24.4915 6.7744 23.2343 6.14681 22.2492L6.02319 22.0552L6.29383 22.2842C6.44268 22.4101 6.69984 22.5807 6.8653 22.6634C7.56977 23.0152 7.56126 23.0145 11.4721 23.0409C13.473 23.0544 15.1105 23.0419 15.1109 23.0131C15.1114 22.9842 15.2129 22.364 15.3365 21.6348C15.46 20.9056 15.5615 20.2726 15.562 20.2281C15.5627 20.1646 14.934 20.1469 12.6362 20.1457C10.8939 20.1447 9.5945 20.1175 9.42508 20.0785C9.03224 19.9879 8.80917 19.8116 8.63206 19.4515C8.49522 19.1734 8.47904 19.0409 8.45843 18.0298L8.43571 16.9148L11.2714 16.898L14.1071 16.8811L14.3107 15.7169C14.4228 15.0766 14.5324 14.4436 14.5543 14.3102L14.5942 14.0677H11.5213H8.44848V12.4831V10.8986H11.8388H15.2292L15.2656 10.7207C15.3306 10.4034 15.6922 8.1113 15.6922 8.01649C15.6922 7.93805 15.0979 7.92199 11.6713 7.90779L7.65035 7.89112L8.10553 7.52336C9.99928 5.99333 12.262 5.12945 14.625 5.03426C17.031 4.93734 19.1961 5.54061 21.155 6.85377C26.3172 10.3142 27.5879 17.2675 23.9861 22.3462C23.4293 23.1312 22.2378 24.3235 21.4483 24.8856C20.7011 25.4176 19.2424 26.149 18.4086 26.4097C17.0316 26.8401 15.504 27.0144 14.1723 26.8929Z" fill="white"/>
</svg>
