<svg width="32" height="32" viewBox="0 0 32 32" fill="none" xmlns="http://www.w3.org/2000/svg">
<rect width="32" height="32" fill="#757575"/>
<g clip-path="url(#clip0_5333_332)">
<path d="M28.9224 7.01202H3.08059C1.38442 7.01202 0.00939941 8.38704 0.00939941 10.0832V21.7098C0.00939941 23.406 1.38442 24.781 3.08059 24.781H28.9224C30.6186 24.781 31.9936 23.406 31.9936 21.7098V10.0832C31.9936 8.38704 30.6186 7.01202 28.9224 7.01202Z" fill="#757575"/>
<path fill-rule="evenodd" clip-rule="evenodd" d="M28.9992 17.4417C28.5807 17.4417 28.2415 17.784 28.2415 18.2063C28.2415 18.6285 28.5807 18.9709 28.9992 18.9709C29.4177 18.9709 29.7569 18.6285 29.7569 18.2063C29.7569 17.784 29.4177 17.4417 28.9992 17.4417ZM26.5064 16.8506C26.5064 16.2725 26.0167 15.804 25.4126 15.804C24.8085 15.804 24.3187 16.2725 24.3187 16.8506C24.3187 17.4287 24.8084 17.8974 25.4126 17.8974C26.0167 17.8974 26.5064 17.4287 26.5064 16.8506ZM26.5104 14.8163H27.7176V18.8848H26.5104V18.6248C26.1694 18.8595 25.7577 18.9974 25.3137 18.9974C24.1387 18.9974 23.1862 18.0363 23.1862 16.8506C23.1862 15.6649 24.1387 14.7038 25.3137 14.7038C25.7577 14.7038 26.1694 14.8418 26.5104 15.0765V14.8163ZM16.8498 15.3462V14.8163H15.6138V18.8848H16.8525V16.9853C16.8525 16.3444 17.5409 16 18.0185 16C18.0234 16 18.028 16.0004 18.0329 16.0005V14.8167C17.5426 14.8167 17.0918 15.0284 16.8498 15.3462ZM13.771 16.8506C13.771 16.2725 13.2813 15.804 12.6772 15.804C12.0731 15.804 11.5833 16.2725 11.5833 16.8506C11.5833 17.4288 12.0731 17.8974 12.6772 17.8974C13.2813 17.8974 13.771 17.4288 13.771 16.8506ZM13.775 14.8163H14.9822V18.8848H13.775V18.6248C13.434 18.8595 13.0223 18.9975 12.5784 18.9975C11.4033 18.9975 10.4508 18.0363 10.4508 16.8506C10.4508 15.6649 11.4033 14.7038 12.5784 14.7038C13.0223 14.7038 13.434 14.8418 13.775 15.0766V14.8163ZM21.0411 14.7069C20.5589 14.7069 20.1025 14.8579 19.7974 15.2747V14.8165H18.5954V18.8849H19.8121V16.7468C19.8121 16.1281 20.2233 15.8252 20.7184 15.8252C21.2489 15.8252 21.5539 16.145 21.5539 16.7384V18.8849H22.7597V16.2976C22.7597 15.3508 22.0136 14.7069 21.0411 14.7069ZM8.69236 18.8849H9.95588V13.0032H8.69236V18.8849ZM3.14197 18.8865H4.4799V13.0022H3.14197V18.8865ZM7.82161 13.0022C7.82161 14.2761 7.32963 15.4611 6.45297 16.342L8.30237 18.8867H6.64985L4.63997 16.1211L5.15869 15.7291C6.01892 15.0789 6.51233 14.085 6.51233 13.0022L7.82161 13.0022Z" fill="white"/>
</g>
<defs>
<clipPath id="clip0_5333_332">
<rect width="32" height="17.79" fill="white" transform="translate(0 7)"/>
</clipPath>
</defs>
</svg>
