<svg width="32" height="32" viewBox="0 0 32 32" fill="none" xmlns="http://www.w3.org/2000/svg">
<rect width="32" height="32" fill="white"/>
<rect width="32" height="32" fill="#757575"/>
<path d="M19.8775 15.7293C20.9794 15.4171 22.0349 14.9199 22.9861 14.2378L21.1998 11.7288C19.6223 12.8388 17.7201 13.2666 15.8178 12.9313C13.9155 12.596 12.2685 11.5439 11.1782 9.95988L8.63795 11.7173C10.2038 13.9834 12.5585 15.498 15.2843 15.9721C15.8874 16.0761 16.4906 16.1339 17.0821 16.1339C17.3025 16.1339 17.5345 16.1224 17.7548 16.1108L8 17.822C8.75394 22.0883 12.8368 24.9326 17.1169 24.181C21.397 23.4295 24.2504 19.3597 23.4964 15.0934L19.8775 15.7293Z" fill="white"/>
<path d="M14.9013 11.3242C16.096 11.3242 17.0703 10.353 17.0703 9.16208C17.0703 7.9712 16.096 7 14.9013 7C13.7066 7 12.7323 7.9712 12.7323 9.16208C12.7323 10.353 13.7066 11.3242 14.9013 11.3242Z" fill="white"/>
</svg>
