<svg width="32" height="32" viewBox="0 0 32 32" fill="none" xmlns="http://www.w3.org/2000/svg">
<rect width="32" height="32" fill="#757575"/>
<path fill-rule="evenodd" clip-rule="evenodd" d="M16.1453 27.929L16.9363 22.9061L16.9874 22.6278C17.0253 22.3861 17.1492 22.1646 17.3355 22.0051C17.5218 21.8456 17.7596 21.7578 18.0048 21.7578H18.6326C19.6796 21.7578 20.6412 21.6459 21.491 21.4248C22.3981 21.1893 23.2047 20.8227 23.8884 20.3355C24.6135 19.8194 25.2225 19.1517 25.6989 18.3516C26.2011 17.5083 26.5702 16.4924 26.7953 15.3327C26.9942 14.3088 27.0318 13.3925 26.9066 12.6082C26.7739 11.7797 26.4554 11.0731 25.9598 10.5068C25.6592 10.1638 25.2744 9.86667 24.8163 9.62372L24.8054 9.61804V9.6045C24.9651 8.58244 24.959 7.73036 24.7871 6.99626C24.6144 6.26085 24.264 5.59928 23.7161 4.97355C22.5804 3.67752 20.5147 3.02032 17.5768 3.02032H9.50826C9.23864 3.02032 8.97687 3.11689 8.77182 3.29255C8.56634 3.46821 8.43065 3.71204 8.38833 3.97902L5.02856 25.3168C4.99803 25.5113 5.05387 25.7092 5.1817 25.8587C5.30996 26.0086 5.49582 26.0946 5.69258 26.0946H10.6984L10.6936 26.1187L10.3498 28.3017C10.3237 28.4717 10.3721 28.6439 10.4833 28.7741C10.595 28.9047 10.7569 28.9799 10.9283 28.9799H15.1266C15.3622 28.9799 15.5904 28.8956 15.7693 28.7422C15.9481 28.5888 16.0672 28.376 16.1039 28.1431L16.1453 27.929Z" fill="white"/>
<mask id="mask0_5333_306" style="mask-type:luminance" maskUnits="userSpaceOnUse" x="5" y="3" width="20" height="24">
<path fill-rule="evenodd" clip-rule="evenodd" d="M5 3H24.9419V26.1151H5V3Z" fill="white"/>
</mask>
<g mask="url(#mask0_5333_306)">
<path fill-rule="evenodd" clip-rule="evenodd" d="M13.2691 9.63267C13.3223 9.29446 13.5387 9.01787 13.8306 8.8776C13.9632 8.81424 14.1111 8.77841 14.2664 8.77841H20.5907C21.3402 8.77841 22.0387 8.82779 22.6774 8.93091C22.8602 8.96019 23.0373 8.99427 23.2101 9.03272C23.3829 9.07117 23.55 9.11356 23.7122 9.16119C23.7934 9.18478 23.8728 9.20969 23.9513 9.23591C24.265 9.34034 24.5569 9.46313 24.8256 9.60558C25.1424 7.58331 24.8234 6.20688 23.7314 4.96022C22.5286 3.58815 20.3564 3 17.5769 3H9.50838C8.94034 3 8.45695 3.4138 8.36838 3.97618L5.00861 25.314C4.9423 25.7348 5.26733 26.1154 5.6927 26.1154H10.6737L13.2691 9.63267Z" fill="white"/>
</g>
<path fill-rule="evenodd" clip-rule="evenodd" d="M24.8257 9.60538C24.8017 9.75963 24.7751 9.91693 24.7432 10.0786C23.6796 15.5503 20.0388 17.4419 15.3899 17.4419H13.0222C12.4542 17.4419 11.9747 17.8561 11.8861 18.4181L10.3299 28.2991C10.2719 28.667 10.5564 29 10.9281 29H15.1268C15.6237 29 16.0469 28.6382 16.1241 28.1466L16.1656 27.9325L16.9561 22.9096L17.0071 22.6321C17.0848 22.1401 17.508 21.7783 18.0045 21.7783H18.6327C22.7001 21.7783 25.8849 20.1231 26.8155 15.3366C27.2042 13.3366 27.0036 11.667 25.9753 10.4933C25.6642 10.1385 25.2772 9.84483 24.8257 9.60538Z" fill="white"/>
<path fill-rule="evenodd" clip-rule="evenodd" d="M23.7123 9.16101C23.55 9.11338 23.3829 9.07056 23.2101 9.0321C23.0373 8.99409 22.8602 8.96001 22.6774 8.93073C22.0387 8.82761 21.3402 8.77823 20.5907 8.77823H14.2664C14.1111 8.77823 13.9632 8.81362 13.8306 8.87742C13.5387 9.01768 13.3223 9.29428 13.2691 9.63249L11.9249 18.169L11.8861 18.4181C11.9747 17.8562 12.4541 17.4419 13.0222 17.4419H15.3898C20.0393 17.4419 23.6796 15.5503 24.7432 10.0786C24.775 9.91696 24.8017 9.75965 24.8257 9.6054C24.5569 9.46295 24.265 9.34016 23.9514 9.23573C23.8728 9.20951 23.7934 9.18461 23.7123 9.16101Z" fill="#F1F1F1"/>
</svg>
