<svg width="32" height="32" viewBox="0 0 32 32" fill="none" xmlns="http://www.w3.org/2000/svg">
<rect width="32" height="32" fill="white"/>
<path fill-rule="evenodd" clip-rule="evenodd" d="M32 0V32H0V0H32Z" fill="#00EB5E"/>
<path d="M3.97705 7.872V11.7257L6.11191 13.8606L8.25134 16L6.11191 18.1394L3.97705 20.2743L3.98619 24.1371L3.99991 28L7.86277 28.0137L11.7256 28.0229L13.8605 25.888L15.9999 23.7486L18.1393 25.888L20.2742 28.0229L24.1371 28.0137L27.9999 28L28.0136 24.1371L28.0228 20.2743L25.8879 18.1394L23.7485 16L25.8879 13.8606L28.0228 11.7257V7.872V4.02286H24.1279H20.2285L18.1165 6.13486L15.9999 8.25143L13.8833 6.13486L11.7713 4.02286H7.87191H3.97705V7.872Z" fill="#221C46"/>
</svg>
