<svg width="32" height="32" viewBox="0 0 32 32" fill="none" xmlns="http://www.w3.org/2000/svg">
<rect width="32" height="32" fill="#757575"/>
<path d="M15.7424 12.7065C16.4149 12.6047 17.9518 12.5675 18.6829 12.6322C19.0962 12.6693 19.5222 12.768 19.7844 12.8852C20.1483 13.0487 20.4724 13.3634 20.6575 13.7397C20.753 13.9339 20.7556 13.9498 20.7649 14.434C20.7865 15.2915 20.6844 16.0008 20.4407 16.7319C20.2278 17.3673 19.9815 17.7319 19.5774 18.0033C19.087 18.3303 18.8028 18.4346 17.1311 18.891C14.6817 19.5574 14.5302 19.6101 14.2649 19.8168C14.0645 19.9772 13.9658 20.2092 13.8733 20.7397C13.8332 20.9709 13.7935 21.1962 13.7874 21.2455L13.7717 21.3285H16.761C18.4082 21.3285 19.7532 21.3378 19.7532 21.3471C19.7524 21.376 19.5409 22.6454 19.5188 22.7563L19.5002 22.8403H15.7239C12.149 22.8403 11.9485 22.8369 11.9485 22.7875C11.9485 22.7564 11.9825 22.5309 12.0256 22.2905C12.3587 20.366 12.3716 20.2977 12.4641 20.017C12.6646 19.3973 13.0438 18.8578 13.5032 18.5463C13.9258 18.2563 14.6542 17.9996 16.175 17.6078C17.1312 17.358 18.066 17.099 18.2727 17.0219C18.7044 16.8584 18.905 16.6609 19.0129 16.3031C19.0747 16.0992 19.26 14.8993 19.26 14.7143C19.2568 14.5632 19.1546 14.3754 19.0344 14.2983C18.8864 14.2057 18.4453 14.1531 17.4924 14.1069C16.3761 14.0544 15.6755 14.1252 15.2805 14.3256C15.006 14.4644 14.7986 15.017 14.6536 16.0072L14.6165 16.2543L13.8206 16.2631C13.3142 16.2662 13.0312 16.26 13.0286 16.2387C13.0286 16.1369 13.2255 15.0937 13.2903 14.85C13.6512 13.4991 14.3114 12.9224 15.7424 12.7065ZM27.8196 15.893L27.2893 19.061L28.0139 19.0707L28.7395 19.0766L28.7209 19.225C28.6991 19.3928 28.5231 20.4112 28.4983 20.5199L28.4836 20.5883H27.7581C27.3602 20.5883 27.0334 20.5947 27.0334 20.6039C27.0306 20.6454 26.6952 22.681 26.676 22.7719L26.6633 22.8403H25.0842L25.0989 22.7719C25.1238 22.6714 25.4581 20.6778 25.4602 20.6225C25.4602 20.5978 24.7472 20.5883 22.9055 20.5883H20.3489L20.4807 19.7953C20.6072 19.0488 20.6201 18.9991 20.7034 18.9096C20.754 18.8558 21.2993 18.2731 21.9124 17.6108C22.5293 16.9506 23.8034 15.5786 24.7473 14.5668L26.4631 12.7221H28.3479L27.8196 15.893ZM26.4133 14.8197C26.401 14.8198 26.364 14.8531 26.3333 14.893C26.3024 14.9331 25.4384 15.8587 24.4143 16.9506C23.3924 18.0403 22.527 18.9644 22.4895 19.0082L22.428 19.0766H25.7219L26.0803 16.9477C26.2733 15.7869 26.4233 14.8331 26.4133 14.8197Z" fill="white"/>
<path d="M3.28003 22.8123C3.28003 22.7969 3.50831 21.3963 3.78903 19.7028C4.06975 18.0092 4.43993 15.785 4.60652 14.7577C4.77618 13.7305 4.92425 12.8544 4.93351 12.8081L4.95202 12.7217H7.31501C9.20294 12.7217 9.75822 12.731 10.0667 12.768C11.1896 12.9007 11.7171 13.2338 11.93 13.9495C12.0225 14.2703 12.0225 14.511 11.9207 15.2205C11.7449 16.439 11.6091 17.167 11.5042 17.4662C11.3839 17.7994 11.1927 18.1048 10.9428 18.3578C10.7299 18.5768 10.6528 18.6323 10.403 18.7465C10.1006 18.8884 9.9032 18.9501 9.47441 19.0395C9.24922 19.0858 8.987 19.092 7.33661 19.092H5.45485L5.31295 19.9403C5.23582 20.4061 5.09701 21.2514 5.00446 21.8128L4.83788 22.8401H4.0605C3.61011 22.8401 3.28003 22.8277 3.28003 22.8123ZM9.17209 17.5495C9.33251 17.5218 9.52068 17.4724 9.59163 17.4416C9.73662 17.3706 9.89703 17.2195 9.96182 17.093C10.0389 16.9449 10.3752 15.1403 10.3752 14.8781C10.3752 14.5541 10.2703 14.4061 9.98341 14.3351C9.79215 14.2858 8.37312 14.2395 6.99111 14.2364L6.2785 14.2333L6.26 14.3197C6.25074 14.366 6.13043 15.0817 5.9947 15.9115C5.85588 16.7413 5.73557 17.4601 5.72632 17.5094L5.71089 17.5958H7.29342C8.57055 17.5958 8.93456 17.5866 9.17209 17.5495Z" fill="white"/>
<path d="M8.67773 10.9853C8.67773 10.9853 8.10955 11.3463 7.79688 11.5751C7.48425 11.804 7.04395 12.1601 7.04395 12.1601H5.08008C5.08008 12.1601 5.84537 11.5742 6.23145 11.3212C6.62614 11.0497 7.55256 10.4759 7.56738 10.4667L8.67773 10.9853ZM25.6562 8.78802C26.259 9.06174 26.5837 9.207 27.1641 9.58392C27.3911 9.73177 27.6927 9.96773 27.7695 10.0429C27.9774 10.2508 28.1769 10.4521 28.2861 10.6406C28.4609 10.9425 28.4746 11.1552 28.4746 11.1552H21.8975L21.0967 10.5478L25.6562 8.78802ZM12.1758 9.35052C12.1581 9.35646 11.1168 9.70596 10.5176 9.98919C9.89234 10.2554 9.30078 10.6191 9.30078 10.6191L8.39062 10.0058C8.40952 9.99508 9.22696 9.53219 10.3105 9.10052C11.3917 8.66923 11.9757 8.48591 11.9902 8.48138L12.1758 9.35052ZM18.2637 7.46185C18.2637 7.46185 19.9293 7.42843 21.3652 7.6513C22.8006 7.87262 24.1136 8.21429 24.0859 8.22942L20.4453 10.1327C20.4453 10.1327 19.594 9.59418 18.5381 9.2636C17.9398 9.0871 17.5039 8.98919 17.5039 8.98919L18.2637 7.46185ZM16.7891 8.872C16.7757 8.87018 15.5815 8.70806 14.46 8.86126C13.5921 8.96477 12.8662 9.15669 12.8496 9.16107L12.6904 8.27044C12.6904 8.27044 13.8156 7.97167 14.8447 7.78021C15.8753 7.58876 17.2412 7.49798 17.2412 7.49798L16.7891 8.872Z" fill="white"/>
</svg>
