<svg width="32" height="32" viewBox="0 0 32 32" fill="none" xmlns="http://www.w3.org/2000/svg">
<rect width="32" height="32" fill="#E1594C"/>
<path d="M15.9884 5C15.9924 5 15.9962 5.00165 16.0002 5.00195C16.087 5.00501 16.1708 5.03884 16.2326 5.10059L19.6515 8.51855L23.4904 12.3555L26.8996 15.7627C27.034 15.8971 27.0338 16.1148 26.8996 16.249L23.4904 19.6572L19.6515 23.4932L16.2443 26.8994C16.1801 26.9638 16.0925 27 16.0011 27H9.67106C9.36463 27 9.21076 26.6298 9.4279 26.4131L19.5949 16.249L19.8381 16.0059L19.5949 15.7627L12.3478 8.51855L9.4152 5.58691C9.19844 5.37018 9.35197 5.00002 9.65836 5H15.9884ZM22.5724 26.4131C22.7893 26.6298 22.6357 27 22.3293 27H17.2472L20.2043 24.0449L22.5724 26.4131ZM15.4484 12.7207L12.4045 15.7627L12.1613 16.0059L15.4484 19.291L11.7961 22.9424L8.50993 19.6572L5.10075 16.249C4.9665 16.1148 4.96634 15.8968 5.10075 15.7627L8.50993 12.3555L11.7961 9.07031L15.4484 12.7207ZM22.342 5C22.6484 5.00027 22.8016 5.37023 22.5851 5.58691L20.2043 7.96777L17.2345 5H22.342Z" fill="white"/>
</svg>
