<svg width="32" height="32" viewBox="0 0 32 32" fill="none" xmlns="http://www.w3.org/2000/svg">
<rect width="32" height="32" fill="#757575"/>
<path d="M22.2998 10.4902C24.3433 10.4902 26 12.147 26 14.1904V15.6094L10.918 15.6064L10.9121 16.7246L26 16.7256V23.2471C25.9998 25.2903 24.3431 26.9463 22.2998 26.9463H9.7002C7.65687 26.9463 6.00021 25.2903 6 23.2471V22.0645L21.2666 22.0615L21.2617 21.0293L6 21.0342V14.1904C6 12.147 7.65674 10.4902 9.7002 10.4902H22.2998ZM16.1846 3.5127C17.8735 3.51275 19.2432 4.8823 19.2432 6.57129C19.243 8.26012 17.8734 9.62885 16.1846 9.62891C14.4957 9.62891 13.1262 8.26016 13.126 6.57129C13.126 4.88226 14.4955 3.5127 16.1846 3.5127Z" fill="white"/>
</svg>
