<svg width="32" height="32" viewBox="0 0 32 32" fill="none" xmlns="http://www.w3.org/2000/svg">
<rect width="32" height="32" fill="#F36F20"/>
<path d="M27 27H5V5H27V27ZM6.5 25.5H25.5V6.5H6.5V25.5ZM16.3574 10.0312C20.0776 10.0177 20.6872 13.2895 20.6641 15.5391L20.6611 16.2656L13.8125 16.3154L13.7939 17.082C13.7838 17.6243 13.9948 19.3683 16.2275 19.3955C18.4446 19.4224 20.118 18.6077 20.1426 18.5957L20.126 20.7441C20.1162 20.7517 19.1941 21.4533 15.9102 21.4932C12.6088 21.5331 11.0225 19.1884 11.001 15.7969C10.9795 12.4053 12.6367 10.045 16.3574 10.0312ZM15.9551 12.0654C13.9471 12.0533 13.7746 14.4225 13.7725 14.4531L18.002 14.4482C18.002 14.4482 17.9763 12.0778 15.9551 12.0654Z" fill="white"/>
</svg>
