<svg width="32" height="32" viewBox="0 0 32 32" fill="none" xmlns="http://www.w3.org/2000/svg">
<rect width="32" height="32" fill="#757575"/>
<path d="M5.1755 7.32363C5.45737 6.95801 5.97643 6.89122 6.33392 7.17949L11.1704 11.0571C12.1019 9.30991 13.9169 8.12517 16 8.12517C19.0387 8.12517 21.4999 10.6423 21.4999 13.75V18.25C21.4999 18.598 21.469 18.9355 21.4105 19.2659L26.6836 23.4916C27.0411 23.7799 27.1064 24.3108 26.8245 24.6764C26.5426 25.042 26.0236 25.1088 25.6661 24.8205L5.31644 8.50837C4.95894 8.22009 4.89363 7.68924 5.1755 7.32363ZM10.5001 14.8082L12.7001 16.5801V18.25C12.7001 20.1132 14.1782 21.6249 16 21.6249C16.7769 21.6249 17.4884 21.3507 18.0522 20.8936L19.8087 22.3104C18.8221 23.2772 17.4781 23.8748 16 23.8748C12.9613 23.8748 10.5001 21.3577 10.5001 18.25V14.8082ZM12.9441 12.4774L19.2999 17.5715V13.75C19.2999 11.8868 17.8218 10.3751 16 10.3751C14.6181 10.3751 13.4357 11.2435 12.9441 12.4774Z" fill="white"/>
</svg>
